<svg width="136" height="70" viewBox="0 0 136 79" fill="none" xmlns="http://www.w3.org/2000/svg">
<g filter="url(#filter0_d_2388_2494)">
<rect x="4" y="0.5" width="128.004" height="70" fill="#F8F6F2"/>
<rect x="4.5" y="1" width="127.004" height="69" stroke="#A3A3A3" stroke-opacity="0.28"/>
</g>
<g clip-path="url(#clip0_2388_2494)">
<path d="M49.6822 35.2061C53.7815 35.2061 57.2422 31.7904 57.2422 27.6611C57.2422 23.5318 53.8258 20.1154 49.6822 20.1154C45.5529 20.1154 42.1365 23.5318 42.1365 27.6611C42.1365 31.8196 45.5529 35.2061 49.6822 35.2061ZM29.3179 44.4746H46.6522C47.2308 44.4746 47.7358 43.9996 47.7358 43.3604C47.7358 42.7225 47.2308 42.2468 46.6522 42.2468H29.5708C28.7236 42.2468 28.2036 41.6525 28.0708 40.7468L27.8472 39.1868H46.6815C48.2265 39.1868 49.2215 38.5332 49.7858 37.2561C48.5086 37.2561 47.305 37.0039 46.1915 36.5132C45.9686 36.8104 45.6865 36.9439 45.27 36.9439L27.5058 36.9589L26.2436 28.3446H40.1458C40.0722 27.6611 40.1165 26.7696 40.22 26.1018H25.9165L25.6493 24.2146C25.4858 23.0718 25.085 22.4918 23.57 22.4918H18.3415C17.7472 22.4918 17.2422 23.0118 17.2422 23.6061C17.2422 24.2146 17.7472 24.7346 18.3415 24.7346H23.3615L25.7386 41.0439C26.05 43.1532 27.1643 44.4746 29.3179 44.4746ZM49.6965 32.5625C49.1772 32.5625 48.7165 32.2054 48.7165 31.6568V28.5668H45.8793C45.6395 28.5657 45.4097 28.4699 45.2401 28.3003C45.0705 28.1307 44.9747 27.9009 44.9736 27.6611C44.9736 27.1711 45.3743 26.7546 45.8793 26.7546H48.7165V23.6804C48.7165 23.1161 49.1772 22.7589 49.6972 22.7589C50.2165 22.7589 50.6615 23.1161 50.6615 23.6804V26.7546H53.4993C54.0043 26.7546 54.4208 27.1704 54.4208 27.6611C54.4208 28.1511 54.0043 28.5668 53.4993 28.5668H50.6622V31.6568C50.6622 32.2061 50.2158 32.5625 49.6965 32.5625ZM30.4922 51.6939C30.809 51.6965 31.1231 51.636 31.4163 51.5159C31.7095 51.3958 31.9758 51.2186 32.1998 50.9946C32.4238 50.7705 32.6009 50.5041 32.7209 50.2109C32.8409 49.9177 32.9013 49.6036 32.8986 49.2868C32.8998 48.9704 32.8384 48.6569 32.7179 48.3644C32.5973 48.0719 32.42 47.8061 32.1962 47.5824C31.9724 47.3588 31.7066 47.1817 31.414 47.0613C31.1214 46.9409 30.8079 46.8797 30.4915 46.8811C30.1748 46.8786 29.8608 46.9392 29.5678 47.0592C29.2747 47.1793 29.0085 47.3565 28.7846 47.5804C28.5607 47.8044 28.3836 48.0707 28.2636 48.3637C28.1437 48.6568 28.0832 48.9708 28.0858 49.2875C28.0819 49.6046 28.1416 49.9192 28.2611 50.2129C28.3807 50.5066 28.5578 50.7734 28.782 50.9976C29.0063 51.2219 29.2731 51.399 29.5668 51.5186C29.8605 51.6381 30.1751 51.6978 30.4922 51.6939ZM44.395 51.6939C44.7118 51.6964 45.0258 51.6358 45.3189 51.5157C45.612 51.3956 45.8783 51.2184 46.1022 50.9943C46.3261 50.7703 46.5032 50.5039 46.6231 50.2108C46.743 49.9176 46.8034 49.6035 46.8008 49.2868C46.802 48.9705 46.7406 48.6571 46.6201 48.3647C46.4997 48.0723 46.3225 47.8066 46.0989 47.583C45.8752 47.3593 45.6096 47.1822 45.3171 47.0617C45.0247 46.9412 44.7113 46.8798 44.395 46.8811C43.0429 46.8811 41.9593 47.9504 41.9593 49.2875C41.9593 50.6389 43.0429 51.6939 44.395 51.6939Z" fill="#181925"/>
</g>
<path d="M69.9082 35.718C69.9082 34.494 70.1902 33.396 70.7542 32.424C71.3302 31.452 72.1042 30.696 73.0762 30.156C74.0602 29.604 75.1342 29.328 76.2982 29.328C77.6302 29.328 78.8122 29.658 79.8442 30.318C80.8882 30.966 81.6442 31.89 82.1122 33.09H79.6462C79.3222 32.43 78.8722 31.938 78.2962 31.614C77.7202 31.29 77.0542 31.128 76.2982 31.128C75.4702 31.128 74.7322 31.314 74.0842 31.686C73.4362 32.058 72.9262 32.592 72.5542 33.288C72.1942 33.984 72.0142 34.794 72.0142 35.718C72.0142 36.642 72.1942 37.452 72.5542 38.148C72.9262 38.844 73.4362 39.384 74.0842 39.768C74.7322 40.14 75.4702 40.326 76.2982 40.326C77.0542 40.326 77.7202 40.164 78.2962 39.84C78.8722 39.516 79.3222 39.024 79.6462 38.364H82.1122C81.6442 39.564 80.8882 40.488 79.8442 41.136C78.8122 41.784 77.6302 42.108 76.2982 42.108C75.1222 42.108 74.0482 41.838 73.0762 41.298C72.1042 40.746 71.3302 39.984 70.7542 39.012C70.1902 38.04 69.9082 36.942 69.9082 35.718ZM83.8301 36.996C83.8301 36 84.0341 35.118 84.4421 34.35C84.8621 33.582 85.4261 32.988 86.1341 32.568C86.8541 32.136 87.6461 31.92 88.5101 31.92C89.2901 31.92 89.9681 32.076 90.5441 32.388C91.1321 32.688 91.6001 33.066 91.9481 33.522V32.082H94.0181V42H91.9481V40.524C91.6001 40.992 91.1261 41.382 90.5261 41.694C89.9261 42.006 89.2421 42.162 88.4741 42.162C87.6221 42.162 86.8421 41.946 86.1341 41.514C85.4261 41.07 84.8621 40.458 84.4421 39.678C84.0341 38.886 83.8301 37.992 83.8301 36.996ZM91.9481 37.032C91.9481 36.348 91.8041 35.754 91.5161 35.25C91.2401 34.746 90.8741 34.362 90.4181 34.098C89.9621 33.834 89.4701 33.702 88.9421 33.702C88.4141 33.702 87.9221 33.834 87.4661 34.098C87.0101 34.35 86.6381 34.728 86.3501 35.232C86.0741 35.724 85.9361 36.312 85.9361 36.996C85.9361 37.68 86.0741 38.28 86.3501 38.796C86.6381 39.312 87.0101 39.708 87.4661 39.984C87.9341 40.248 88.4261 40.38 88.9421 40.38C89.4701 40.38 89.9621 40.248 90.4181 39.984C90.8741 39.72 91.2401 39.336 91.5161 38.832C91.8041 38.316 91.9481 37.716 91.9481 37.032ZM98.7653 33.522C99.0653 33.018 99.4613 32.628 99.9533 32.352C100.457 32.064 101.051 31.92 101.735 31.92V34.044H101.213C100.409 34.044 99.7973 34.248 99.3773 34.656C98.9693 35.064 98.7653 35.772 98.7653 36.78V42H96.7133V32.082H98.7653V33.522ZM106.015 33.756V39.246C106.015 39.618 106.099 39.888 106.267 40.056C106.447 40.212 106.747 40.29 107.167 40.29H108.427V42H106.807C105.883 42 105.175 41.784 104.683 41.352C104.191 40.92 103.945 40.218 103.945 39.246V33.756H102.775V32.082H103.945V29.616H106.015V32.082H108.427V33.756H106.015Z" fill="#181925"/>
<defs>
<filter id="filter0_d_2388_2494" x="0" y="0.5" width="136" height="78" filterUnits="userSpaceOnUse" color-interpolation-filters="sRGB">
<feFlood flood-opacity="0" result="BackgroundImageFix"/>
<feColorMatrix in="SourceAlpha" type="matrix" values="0 0 0 0 0 0 0 0 0 0 0 0 0 0 0 0 0 0 127 0" result="hardAlpha"/>
<feOffset dy="4"/>
<feGaussianBlur stdDeviation="2"/>
<feComposite in2="hardAlpha" operator="out"/>
<feColorMatrix type="matrix" values="0 0 0 0 0 0 0 0 0 0 0 0 0 0 0 0 0 0 0.02 0"/>
<feBlend mode="normal" in2="BackgroundImageFix" result="effect1_dropShadow_2388_2494"/>
<feBlend mode="normal" in="SourceGraphic" in2="effect1_dropShadow_2388_2494" result="shape"/>
</filter>
<clipPath id="clip0_2388_2494">
<rect width="40" height="40" fill="white" transform="translate(17.2422 15.5)"/>
</clipPath>
</defs>
</svg>
