<svg width="26" height="26" viewBox="0 0 26 26" fill="none" xmlns="http://www.w3.org/2000/svg">
<path d="M21.086 12.809C23.7505 12.809 26 10.5888 26 7.90471C26 5.22068 23.7793 3 21.086 3C18.402 3 16.1813 5.22068 16.1813 7.90471C16.1813 10.6078 18.402 12.809 21.086 12.809ZM7.84921 18.8335H19.1165C19.4926 18.8335 19.8208 18.5248 19.8208 18.1092C19.8208 17.6946 19.4926 17.3854 19.1165 17.3854H8.01357C7.46293 17.3854 7.12493 16.9991 7.03857 16.4104L6.89325 15.3964H19.1355C20.1398 15.3964 20.7865 14.9716 21.1533 14.1415C20.3232 14.1415 19.5409 13.9776 18.817 13.6586C18.6722 13.8518 18.4888 13.9386 18.2181 13.9386L6.67132 13.9483L5.85093 8.34904H14.8873C14.8395 7.90471 14.8683 7.32529 14.9356 6.89118H5.63829L5.46464 5.66454C5.35832 4.92168 5.09786 4.54468 4.11311 4.54468H0.714536C0.32825 4.54468 0 4.88268 0 5.26896C0 5.66454 0.32825 6.00254 0.714536 6.00254H3.97754L5.52268 16.6036C5.72511 17.9746 6.44939 18.8335 7.84921 18.8335ZM21.0953 11.0906C20.7577 11.0906 20.4583 10.8585 20.4583 10.5019V8.49343H18.6141C18.4582 8.4927 18.3089 8.43044 18.1987 8.32019C18.0884 8.20994 18.0262 8.06063 18.0254 7.90471C18.0254 7.58621 18.2859 7.31554 18.6141 7.31554H20.4583V5.31725C20.4583 4.95046 20.7577 4.71832 21.0957 4.71832C21.4333 4.71832 21.7225 4.95046 21.7225 5.31725V7.31554H23.5671C23.8954 7.31554 24.1661 7.58575 24.1661 7.90471C24.1661 8.22321 23.8954 8.49343 23.5671 8.49343H21.723V10.5019C21.723 10.859 21.4328 11.0906 21.0953 11.0906ZM8.6125 23.5261C8.81841 23.5277 9.0226 23.4884 9.21316 23.4104C9.40372 23.3323 9.57684 23.2171 9.72243 23.0715C9.86802 22.9259 9.98316 22.7527 10.0611 22.5621C10.1391 22.3715 10.1784 22.1673 10.1767 21.9614C10.1775 21.7558 10.1375 21.552 10.0592 21.3619C9.98083 21.1717 9.86559 20.999 9.72013 20.8536C9.57467 20.7082 9.40186 20.5931 9.21167 20.5149C9.02149 20.4366 8.81769 20.3968 8.61204 20.3977C8.4062 20.3961 8.2021 20.4355 8.01162 20.5135C7.82115 20.5916 7.6481 20.7067 7.50257 20.8523C7.35704 20.9979 7.24193 21.1709 7.16394 21.3614C7.08596 21.5519 7.04665 21.7561 7.04832 21.9619C7.04583 22.168 7.08459 22.3725 7.16231 22.5634C7.24004 22.7543 7.35516 22.9277 7.50091 23.0735C7.64665 23.2192 7.82008 23.3344 8.01098 23.4121C8.20188 23.4898 8.4064 23.5286 8.6125 23.5261ZM17.6494 23.5261C17.8552 23.5277 18.0594 23.4883 18.2499 23.4102C18.4404 23.3322 18.6134 23.217 18.759 23.0713C18.9045 22.9257 19.0196 22.7526 19.0976 22.562C19.1755 22.3715 19.2148 22.1673 19.2131 21.9614C19.2139 21.7559 19.174 21.5522 19.0957 21.3621C19.0174 21.172 18.9022 20.9993 18.7568 20.8539C18.6115 20.7086 18.4388 20.5934 18.2487 20.5151C18.0586 20.4368 17.8549 20.3969 17.6494 20.3977C16.7705 20.3977 16.0661 21.0927 16.0661 21.9619C16.0661 22.8403 16.7705 23.5261 17.6494 23.5261Z" fill="#181925"/>
</svg>
