<svg width="26" height="26" viewBox="0 0 26 26" fill="none" xmlns="http://www.w3.org/2000/svg">
<path d="M6.30779 3.93467L12.9985 10.6253L19.6545 3.96934C19.8015 3.81285 19.9786 3.68767 20.1752 3.60129C20.3718 3.51491 20.5838 3.46913 20.7985 3.46667C21.2582 3.46667 21.699 3.64929 22.0241 3.97436C22.3492 4.29942 22.5318 4.7403 22.5318 5.20001C22.5358 5.41252 22.4964 5.62361 22.4159 5.82034C22.3354 6.01706 22.2156 6.19526 22.0638 6.34401L15.3211 13L22.0638 19.7427C22.3495 20.0222 22.517 20.4006 22.5318 20.8C22.5318 21.2597 22.3492 21.7006 22.0241 22.0257C21.699 22.3507 21.2582 22.5333 20.7985 22.5333C20.5776 22.5425 20.3572 22.5056 20.1513 22.4251C19.9454 22.3445 19.7585 22.222 19.6025 22.0653L12.9985 15.3747L6.32513 22.048C6.17867 22.1993 6.0037 22.3201 5.81033 22.4034C5.61695 22.4867 5.409 22.5308 5.19846 22.5333C4.73875 22.5333 4.29787 22.3507 3.97281 22.0257C3.64774 21.7006 3.46513 21.2597 3.46513 20.8C3.46108 20.5875 3.50051 20.3764 3.58099 20.1797C3.66147 19.983 3.7813 19.8048 3.93313 19.656L10.6758 13L3.93313 6.25734C3.64745 5.97786 3.47993 5.59939 3.46513 5.20001C3.46513 4.7403 3.64774 4.29942 3.97281 3.97436C4.29787 3.64929 4.73875 3.46667 5.19846 3.46667C5.61446 3.47187 6.01313 3.64001 6.30779 3.93467Z" fill="#181925"/>
</svg>
