<svg width="30" height="32" viewBox="0 0 43 41" fill="none" xmlns="http://www.w3.org/2000/svg">
<path fill-rule="evenodd" clip-rule="evenodd" d="M36.8714 20.2502C38.4755 18.4465 39.3665 16.0113 39.3487 13.4802C39.3308 10.9492 38.4054 8.52968 36.7761 6.75396C35.9694 5.87471 35.0141 5.17997 33.9648 4.70943C32.9156 4.23888 31.7929 4.00174 30.6608 4.01153C28.3745 4.03131 26.1889 5.05573 24.5849 6.85944C24.1493 7.34162 23.5958 7.93348 22.9243 8.63499L21.0573 10.5813L19.1903 8.63499C18.5173 7.9318 17.963 7.33995 17.5274 6.85944C15.9108 5.06973 13.7181 4.06428 11.4318 4.06428C9.14551 4.06428 6.95285 5.06973 5.33618 6.85944C2.00594 10.5487 1.96737 16.5132 5.21368 20.2201L21.0573 37.7597L36.8714 20.2502ZM3.41018 4.72977C4.46349 3.5634 5.71405 2.63816 7.09041 2.0069C8.46678 1.37565 9.942 1.05074 11.4318 1.05074C12.9216 1.05074 14.3968 1.37565 15.7732 2.0069C17.1496 2.63816 18.4001 3.5634 19.4534 4.72977C19.8663 5.18852 20.4009 5.75944 21.0573 6.44254C21.7106 5.75944 22.2453 5.18768 22.6612 4.72726C24.7721 2.35441 27.648 1.00706 30.6563 0.981629C33.6646 0.956196 36.5587 2.25476 38.7022 4.59164C40.8456 6.92853 42.0626 10.1123 42.0856 13.4426C42.1086 16.7729 40.9356 19.9769 38.8247 22.3497L22.6612 40.246C22.2358 40.7168 21.6588 40.9813 21.0573 40.9813C20.4558 40.9813 19.8788 40.7168 19.4534 40.246L3.28541 22.3472C1.21204 19.98 0.0629414 16.8049 0.0862864 13.5077C0.109631 10.2105 1.30354 7.05572 3.41018 4.72475V4.72977Z" fill="#222222"/>
</svg>
