<svg width="18" height="20" viewBox="0 0 18 18" fill="none" xmlns="http://www.w3.org/2000/svg">
<path fill-rule="evenodd" clip-rule="evenodd" d="M15.7652 8.64662C16.4526 7.89628 16.8345 6.88322 16.8269 5.83031C16.8192 4.7774 16.4226 3.77088 15.7244 3.03218C15.3786 2.66641 14.9692 2.3774 14.5195 2.18165C14.0698 1.98591 13.5887 1.88725 13.1035 1.89133C12.1237 1.89956 11.187 2.32572 10.4996 3.07606C10.3129 3.27665 10.0757 3.52286 9.78788 3.81469L8.98773 4.62436L8.18757 3.81469C7.89914 3.52216 7.66159 3.27595 7.47492 3.07606C6.78207 2.33154 5.84236 1.91327 4.86251 1.91327C3.88267 1.91327 2.94296 2.33154 2.25011 3.07606C0.822858 4.61078 0.80633 7.09204 2.19761 8.63408L8.98773 15.9306L15.7652 8.64662ZM1.42467 2.19012C1.8761 1.7049 2.41205 1.32001 3.00192 1.0574C3.59179 0.794802 4.22402 0.659641 4.86251 0.659641C5.501 0.659641 6.13324 0.794802 6.72311 1.0574C7.31298 1.32001 7.84893 1.7049 8.30035 2.19012C8.4773 2.38096 8.70643 2.61846 8.98773 2.90263C9.26773 2.61846 9.49686 2.38061 9.6751 2.18907C10.5798 1.20196 11.8123 0.64147 13.1016 0.63089C14.3908 0.62031 15.6312 1.16051 16.5498 2.13266C17.4684 3.1048 17.99 4.42926 17.9999 5.81466C18.0097 7.20006 17.507 8.53292 16.6023 9.52002L9.6751 16.9649C9.49278 17.1607 9.24553 17.2707 8.98773 17.2707C8.72992 17.2707 8.48268 17.1607 8.30035 16.9649L1.3712 9.51898C0.482614 8.5342 -0.00985548 7.21337 0.000149516 5.84173C0.0101545 4.47009 0.52183 3.15771 1.42467 2.18803V2.19012Z" fill="#222222"/>
</svg>
