<svg width="35" height="35" viewBox="0 0 35 35" fill="none" xmlns="http://www.w3.org/2000/svg">
<path d="M22.9115 20.7497H21.7923L21.3956 20.3672C22.8319 18.7012 23.6214 16.5744 23.6198 14.3747C23.6198 12.5535 23.0797 10.7731 22.0679 9.25884C21.0561 7.74454 19.6179 6.56429 17.9353 5.86733C16.2527 5.17037 14.4012 4.98802 12.615 5.34332C10.8288 5.69863 9.188 6.57564 7.90019 7.86344C6.61238 9.15125 5.73537 10.792 5.38006 12.5783C5.02476 14.3645 5.20711 16.216 5.90407 17.8986C6.60103 19.5812 7.78128 21.0193 9.29559 22.0312C10.8099 23.043 12.5902 23.5831 14.4115 23.5831C16.6923 23.5831 18.789 22.7472 20.404 21.3589L20.7865 21.7556V22.8747L27.8698 29.9439L29.9806 27.8331L22.9115 20.7497ZM14.4115 20.7497C10.884 20.7497 8.03646 17.9022 8.03646 14.3747C8.03646 10.8472 10.884 7.99972 14.4115 7.99972C17.939 7.99972 20.7865 10.8472 20.7865 14.3747C20.7865 17.9022 17.939 20.7497 14.4115 20.7497Z" fill="#A3A3A3" fill-opacity="0.6"/>
</svg>
